<svg width="173" height="173" viewBox="0 0 173 173" fill="none" xmlns="http://www.w3.org/2000/svg">
<rect width="173" height="173" fill="#F5F5F5"/>
<g id="Desktop - 1" clip-path="url(#clip0_0_1)">
<rect width="1440" height="4154" transform="translate(-634 -723)" fill="#FFFBF4"/>
<g id="image_1715463061489_lbxwh 1">
<path id="Vector" fill-rule="evenodd" clip-rule="evenodd" d="M78.5594 2.93949C72.9987 3.44531 62.9205 5.77 56.9158 7.93216C49.5106 10.5985 39.8611 16.0544 33.282 21.2947C16.5146 34.6509 5.32835 55.0375 2.51676 77.3636C1.75245 83.4345 1.97647 93.3492 3.0094 99.1707C6.05684 116.34 12.891 129.746 25.0466 142.397L29.1919 146.71L29.7639 144.956C30.5069 142.676 32.2788 140.884 35.358 139.299L37.7949 138.044L44.1547 138.635C47.6525 138.959 52.035 139.368 53.8934 139.542C55.7518 139.717 59.6531 140.02 62.5626 140.217C68.4858 140.618 69.4255 140.85 71.7171 142.468C73.2768 143.57 73.3221 143.581 73.3221 142.836C73.3221 141.493 71.7674 139.662 69.8655 138.764C67.7455 137.763 65.7625 137.385 58.7928 136.653C55.9123 136.351 53.345 135.987 53.0875 135.844C52.7665 135.666 53.1382 135.393 54.2701 134.975C62.2095 132.041 65.6628 130.281 67.9307 128.013C69.2725 126.672 69.7475 126.372 69.9513 126.738C70.4754 127.679 70.9568 131.278 70.9616 134.289C70.967 137.966 71.1528 138.782 72.0492 139.067C73.0812 139.394 73.3113 138.693 73.317 135.199C73.3265 129.287 71.7945 121.425 67.4235 104.958C66.0003 99.5975 64.9103 95.1367 65.0012 95.0461C65.0917 94.9552 65.9922 96.1503 67.0018 97.7016C68.0115 99.2532 69.2765 100.927 69.8127 101.421C71.2478 102.744 76.429 105.929 79.9109 107.628C83.7193 109.487 86.2646 110.152 89.5706 110.152C91.2647 110.152 92.2855 110.302 92.5207 110.585C92.7183 110.823 93.111 112.126 93.3931 113.48C93.6756 114.834 94.2372 116.477 94.6409 117.13C95.6536 118.769 99.9141 122.337 103.563 124.603C107.148 126.828 114.313 130.307 117.999 131.611C119.434 132.119 120.878 132.732 121.209 132.973C121.966 133.526 122.732 133.354 109.983 135.506C94.691 138.087 85.5007 139.807 83.6825 140.427C82.1529 140.948 79.0804 143.393 79.4676 143.78C79.5639 143.876 80.6154 143.729 81.8041 143.454C84.2147 142.895 101.932 139.926 114.376 137.995C124.709 136.392 131.17 136.214 134.096 137.451C137.872 139.048 140.532 141.587 141.218 144.249C141.39 144.916 141.671 145.994 141.842 146.644L142.154 147.827L147.697 142.252C157.076 132.818 162.569 123.916 166.771 111.335C171.15 98.2267 171.757 83.9785 168.593 68.571C166.729 59.4933 161.618 47.2052 156.516 39.533C150.649 30.71 142.52 22.7551 132.96 16.4805C121.909 9.22763 110.335 4.90196 97.466 3.21487C93.8837 2.7452 82.5157 2.57964 78.5594 2.93949ZM103.088 10.2261C107.778 12.1277 110.529 13.9625 113.804 17.3745C115.791 19.4441 116.853 20.9072 117.893 23.0092C119.427 26.11 120.615 30.9594 120.622 34.1498C120.639 41.1803 115.325 46.7791 106.097 49.4535C103.032 50.3418 102.985 50.9646 106.017 50.529C113.276 49.4866 118.777 46.2219 120.846 41.7293C121.665 39.951 121.775 39.3208 121.741 36.5968C121.72 34.8887 121.604 32.9881 121.482 32.3731C121.277 31.3375 121.507 31.5051 124.576 34.6336C129.882 40.0412 131.72 43.9189 132.026 50.3496C132.288 55.8555 131.834 57.2182 126.28 67.5854C123.987 71.8638 123.326 74.2162 123.341 78.0391C123.362 83.6234 124.91 86.3397 132.319 93.7912C138.001 99.5066 140.647 102.96 141.888 106.275C142.911 109.009 143.288 112.207 142.925 115.071C142.617 117.502 141.192 121.85 140.496 122.485C140.232 122.726 140.198 122.628 140.379 122.147C140.519 121.776 140.709 120.179 140.801 118.599C140.991 115.366 140.446 112.45 139.07 109.339C138.176 107.317 135.5 103.276 135.232 103.544C135.145 103.631 135.528 104.507 136.083 105.491C136.638 106.475 137.523 108.42 138.048 109.814C138.898 112.066 139.007 112.801 139.023 116.403C139.038 119.685 138.899 120.912 138.293 122.837C137.37 125.772 135.34 128.969 132.929 131.285C131.924 132.251 131.101 133.117 131.101 133.209C131.101 133.301 132.255 133.797 133.664 134.311C137.14 135.578 139.955 137.519 141.275 139.555C142.568 141.551 142.435 141.61 146.362 137.318C155.944 126.845 162.335 113.916 164.967 99.6776C165.959 94.3115 166.04 81.1135 165.116 75.5184C161.542 53.8745 152.317 37.284 137.183 25.2845C126.081 16.4811 112.639 10.392 101.198 8.98334C99.6438 8.79209 99.7951 8.89143 103.088 10.2261ZM101.166 13.2293C101.069 13.3867 101.298 13.5155 101.676 13.5155C102.054 13.5155 103.527 13.9777 104.949 14.5427C107.651 15.6161 108.406 15.6884 106.951 14.7346C105.183 13.5766 101.538 12.6282 101.166 13.2293ZM51.866 15.3235C33.9751 23.9962 21.2653 36.9799 13.5644 54.4509C8.61298 65.6844 6.60557 74.9666 6.63328 86.4998C6.65051 93.7794 7.10599 97.5039 8.7897 104.142C10.4261 110.594 15.1583 121.978 16.2034 121.978C16.3733 121.978 15.9695 120.803 15.3059 119.367C13.6965 115.883 12.9343 111.495 13.4536 108.701C13.8871 106.371 14.7893 104.495 16.4635 102.442L17.6536 100.983L16.8518 100.432C15.5816 99.561 13.8604 97.6006 13.0738 96.1297C12.0564 94.2271 12.0338 89.9419 13.0309 88.041C14.1142 85.9764 14.4794 86.1491 14.2801 88.6316C14.178 89.9048 14.275 91.305 14.5159 92.0348C16.3081 97.4654 23.3957 98.2946 28.0697 93.6206C30.341 91.3493 31.0858 89.4601 31.0858 85.9683C31.0858 82.7999 30.2113 80.0265 28.0032 76.1942C25.3048 71.51 24.3526 69.2647 24.1198 67.0367C23.865 64.6011 24.5662 61.8396 25.8258 60.3133L26.6628 59.2996L26.4651 61.527C26.2367 64.1034 26.6739 65.773 27.8724 66.8988C29.4568 68.3872 32.2734 67.1455 34.6458 63.9129C36.9394 60.7874 37.6503 56.7746 37.1364 49.8603C36.8272 45.7019 37.1127 41.1181 37.7446 40.096C37.8743 39.8858 38.1558 40.9427 38.3703 42.444C38.5849 43.9456 39.1573 46.0405 39.6418 47.0994C40.592 49.1741 43.7134 52.5722 45.535 53.5139C46.3756 53.9488 46.1033 53.5602 44.3105 51.7674C39.6188 47.0758 37.7885 40.6994 39.5219 35.0867C40.7852 30.9973 41.0535 31.2274 41.0535 36.4011C41.0535 40.8559 41.0954 41.1397 42.0412 43.0809C44.128 47.3637 49.1078 51.2298 54.2177 52.5344C56.8499 53.2065 62.4988 53.196 65.8182 52.5128C68.1189 52.0391 71.8151 50.7443 71.5583 50.5017C71.5063 50.4527 70.1712 50.6976 68.5916 51.0467C62.7001 52.3479 55.7332 51.7174 51.3254 49.4836C48.9071 48.2584 45.9205 45.336 44.6497 42.9518C42.4372 38.8005 41.9618 33.3946 43.4076 28.8226C44.917 24.0485 49.5298 18.2 54.2948 15.0184C58.1052 12.4744 57.6169 12.5356 51.866 15.3235ZM91.9216 17.5228C99.2967 20.0172 102.494 22.2469 104.482 26.2847C105.491 28.3326 105.591 28.8148 105.591 31.6352C105.591 33.3398 105.707 34.6634 105.849 34.5765C105.991 34.49 106.445 33.7828 106.858 33.0057C107.464 31.867 107.611 31.0348 107.614 28.7205C107.618 26.1644 107.508 25.6495 106.616 24.0391C105.402 21.8482 103.271 19.9077 100.787 18.7328C98.8825 17.832 94.0706 16.7751 90.2166 16.4112L88.0203 16.2037L91.9216 17.5228ZM111.974 19.0116C113.624 21.5894 114.207 23.6025 114.207 26.7155C114.207 31.2017 112.283 35.5804 109.124 38.2842C107.116 40.0031 108.216 39.8855 110.874 38.097C114.814 35.4463 116.468 32.143 116.148 27.5646C115.938 24.553 114.923 21.8749 113.004 19.2681C111.158 16.7616 110.417 16.5764 111.974 19.0116ZM91.7554 23.5985C91.2215 23.8242 91.4124 23.9543 92.769 24.2898C96.1104 25.1159 99.5052 28.1059 101.091 31.6196C101.636 32.8266 101.845 33.9524 101.857 35.7301C101.875 38.3373 102.238 38.7052 102.923 36.8096C103.605 34.9229 103.488 31.1561 102.693 29.3963C101.806 27.4339 99.9269 25.4971 97.905 24.4628C96.205 23.5931 92.8758 23.1251 91.7554 23.5985ZM47.9712 25.764C47.1555 27.5612 47.0768 31.7072 47.8188 33.8102C49.0571 37.3195 52.533 40.4599 56.7719 41.8983C59.2949 42.7542 65.5506 43.2681 65.5506 42.6193C65.5506 42.3892 64.9289 42.2362 63.9943 42.2362C58.3917 42.2362 51.2348 37.9882 49.0146 33.3449C48.0171 31.2584 47.765 28.0698 48.429 25.9329C49.048 23.9411 48.8345 23.8624 47.9712 25.764ZM89.2604 37.3658C87.5317 40.9245 81.9538 45.5549 75.8133 48.5294C72.2692 50.2462 72.0307 50.4253 71.8249 51.5231C71.6478 52.4672 70.2743 56.3563 68.7389 60.263C68.5075 60.8516 68.5514 60.8583 69.4782 60.3789C71.2775 59.4487 74.1992 59.1033 76.8284 59.5105C79.8005 59.971 83.7379 61.3385 84.6414 62.2241C85.3094 62.8789 85.3094 62.8921 84.6614 63.3739C83.6521 64.1237 82.4502 63.9676 79.0155 62.6404C76.1485 61.5328 75.6218 61.4341 73.3221 61.5726C71.5681 61.6787 70.279 61.9764 69.1349 62.54C67.6344 63.279 67.3103 63.6665 65.6266 66.7332C64.6062 68.5916 63.0884 70.9822 62.2535 72.0452L60.7357 73.9786L61.0942 76.3932C61.4685 78.9169 61.1026 81.0628 60.2501 81.3423C59.8163 81.4842 58.9276 80.6989 58.1143 79.4548C57.6051 78.6756 57.6044 78.676 55.8335 80.8858C54.8594 82.1015 54.0623 83.3331 54.0623 83.6227C54.0623 83.9126 54.778 84.6033 55.6524 85.1581C57.0303 86.0319 57.2824 86.0957 57.5392 85.6369C57.7024 85.3456 57.7517 84.8884 57.649 84.6208C57.5463 84.3536 57.5929 84.1346 57.7521 84.1346C57.9116 84.1346 58.1417 84.6668 58.2636 85.3172C58.3856 85.9677 58.5968 86.4998 58.733 86.4998C59.3226 86.4998 60.4231 85.4314 60.8198 84.4732C61.5746 82.6506 61.5473 82.6128 65.4999 90.91C66.6109 93.2428 68.1233 95.9142 68.8606 96.8467C70.3321 98.7085 74.4611 101.549 79.742 104.332C84.5674 106.875 87.0202 107.584 91.0613 107.602C96.872 107.629 98.477 106.555 101.34 100.724C102.215 98.9403 103.486 96.4916 104.163 95.282C105.806 92.3474 106.287 90.8999 107.465 85.3483C108.105 82.337 108.463 79.6586 108.463 77.8924C108.463 75.0957 107.939 71.3407 107.482 70.865C107.344 70.7217 106.877 70.9116 106.444 71.2873C105.561 72.0533 104.877 72.1321 103.536 71.6222L102.62 71.2741L103.345 70.5024C104.207 69.5854 104.264 69.0762 103.536 68.7967C102.764 68.5007 102.719 68.5247 102.719 69.2299C102.719 69.581 102.44 70.2122 102.1 70.6325C101.621 71.2241 101.277 71.3454 100.579 71.1704C99.5329 70.9079 99.3653 70.2811 100.341 70.2811C100.908 70.2811 101.705 69.4053 101.705 68.7829C101.705 68.2686 99.9985 68.6673 99.6843 69.2549C99.4664 69.6624 99.1264 69.8401 98.8034 69.7161C98.5138 69.605 97.8381 69.8388 97.3015 70.2355C95.8448 71.3127 95.2333 71.2062 95.6705 69.952C96.4152 67.8155 101.206 64.8755 103.944 64.8752C104.772 64.8748 105.51 64.6687 105.76 64.368C106.464 63.5196 106.855 63.7976 106.709 65.0438C106.55 66.4078 106.751 66.5085 107.65 65.5162C108.179 64.933 108.315 64.1653 108.411 61.229C108.475 59.2618 108.429 56.7307 108.309 55.6038L108.09 53.5555L104.644 53.6761C102.749 53.7427 100.21 53.6173 99.0018 53.3977C97.0251 53.0385 96.6058 53.0686 94.8095 53.6994C92.8677 54.3813 91.2303 54.6087 91.2303 54.1965C91.2303 54.0843 91.9152 53.2308 92.7525 52.2996C96.4605 48.1753 95.905 41.5753 91.4861 37.2492L90.0162 35.8105L89.2604 37.3658ZM50.3455 40.2105C50.3455 40.888 53.2074 43.2596 55.2601 44.2831C56.3836 44.8433 58.1322 45.5225 59.1459 45.7925C61.5882 46.4422 66.3534 46.4213 69.3698 45.7475C72.2307 45.1086 76.701 43.3363 76.701 42.841C76.701 42.6433 76.3753 42.5883 75.9407 42.7123C70.817 44.174 69.2937 44.398 64.5369 44.3892C60.9418 44.3828 59.0563 44.2226 57.4537 43.7874C55.222 43.1809 52.7641 41.9324 52.0069 41.0198C51.3852 40.2707 50.3455 39.7642 50.3455 40.2105ZM122.158 51.1903C124.29 57.1284 124.173 60.5275 121.643 66.1061C121.081 67.3458 120.678 68.4183 120.749 68.4889C120.99 68.7295 123.082 65.1847 123.913 63.1279C125.421 59.3943 124.829 54.014 122.619 51.3592C122.05 50.676 121.962 50.6439 122.158 51.1903ZM102.175 59.176C98.9764 60.8779 97.3123 62.14 97.3123 62.8637C97.3123 63.8314 98.2074 63.6831 100.522 62.3315C104.085 60.2511 105.405 59.7338 106.81 59.868C108.317 60.0116 108.563 59.476 107.374 58.6431C106.194 57.817 104.379 58.0032 102.175 59.176ZM74.6736 67.1526C74.0232 67.231 73.2123 67.5942 72.8713 67.9598C72.3645 68.5031 71.9867 68.5849 70.7994 68.4068C69.0951 68.151 68.5646 68.6342 69.684 69.4228C70.3338 69.8804 70.373 70.0111 69.9432 70.2855C69.6644 70.4632 69.0944 70.6109 68.6761 70.6139C68.2578 70.6166 67.9158 70.7524 67.9158 70.916C67.9158 71.1849 68.3939 71.4171 70.45 72.1473C70.9724 72.3328 71.0109 72.4226 70.619 72.5436C69.0457 73.0288 69.0836 72.9987 69.6147 73.3404C70.7028 74.0401 72.5737 74.329 74.1313 74.0378C76.0881 73.6725 76.2834 73.4917 75.5728 72.7061C74.774 71.8239 74.8426 71.7087 76.4476 71.2431C77.2376 71.014 78.2043 70.624 78.5962 70.377C79.5379 69.7834 80.4823 70.1642 80.3512 71.0843C80.2867 71.5367 79.9606 71.8425 79.469 71.9121C78.8365 72.0016 78.7645 72.1138 79.0878 72.5034C79.7305 73.2778 80.7503 73.0616 81.8112 71.9259C82.7357 70.9363 82.8394 70.9031 83.4095 71.4191C84.194 72.1294 84.9475 72.1395 84.6776 71.436C84.5647 71.142 84.4725 70.7673 84.4725 70.6031C84.4725 70.4389 84.0021 69.7688 83.427 69.114C81.8035 67.2651 78.9858 66.6336 74.6736 67.1526ZM57.1821 69.5908C55.4673 71.5813 52.2218 73.3221 50.2252 73.3221H48.8615L50.3638 72.3561C51.1899 71.8246 52.2462 70.9572 52.7108 70.4287L53.5555 69.4671L52.7108 70.054C48.3293 73.0977 41.7746 74.1439 38.2757 72.3571C37.2509 71.8337 36.9012 71.7634 37.033 72.1064C37.3337 72.8903 40.2429 73.9411 43.0903 74.2949C44.5571 74.4767 45.8631 74.5601 45.9928 74.4801C46.1222 74.4 46.5845 74.4686 47.02 74.6324C47.7576 74.9102 47.7198 74.9538 46.4598 75.2748C45.7164 75.4643 44.6521 75.7404 44.0945 75.888L43.0809 76.1567L44.0553 76.2868C46.8078 76.654 53.3916 74.3821 56.0119 72.1604C57.0847 71.2505 59.0151 68.3636 58.7367 68.0848C58.6607 68.0088 57.9609 68.6866 57.1821 69.5908ZM107.637 68.7883C107.277 69.0518 107.125 69.2651 107.3 69.2623C107.767 69.2546 108.638 68.6545 108.452 68.4686C108.365 68.3808 107.998 68.5247 107.637 68.7883ZM85.4973 84.1667C85.472 85.3834 86.6887 85.9085 89.5611 85.9207C92.1919 85.9315 92.8951 85.6811 92.9147 84.7259C92.9221 84.3549 90.9454 84.4167 88.7589 84.8557C86.9333 85.2223 86.8215 85.204 86.1795 84.4333C85.672 83.8237 85.5057 83.7589 85.4973 84.1667ZM96.0077 84.8215C95.5691 85.1871 95.3556 85.4862 95.533 85.4862C95.7107 85.4862 96.1314 85.1821 96.4676 84.8104C97.2403 83.9565 97.0403 83.9613 96.0077 84.8215ZM57.376 88.7806C56.4167 89.8977 56.3458 90.2511 56.9851 90.7353C57.843 91.3851 58.5843 91.3449 59.2472 90.6123C59.9659 89.8186 59.9538 89.7047 59.0668 88.8783C58.166 88.0386 58.0204 88.0305 57.376 88.7806ZM100.204 89.1273C99.7722 89.5588 95.5654 90.2352 91.3992 90.5427C89.1691 90.7073 85.9369 90.9519 84.2167 91.0864C81.4842 91.2999 81.0054 91.2553 80.4289 90.7336C79.5474 89.9355 78.0525 90.2781 78.0525 91.278C78.0525 91.8561 78.1428 91.9139 78.5357 91.5878C78.9216 91.2675 79.0916 91.3219 79.3778 91.8571C79.9032 92.8387 85.0036 96.591 87.2807 97.6708C89.9145 98.9204 92.6683 99.2211 95.0728 98.522C97.0342 97.952 97.7874 97.2039 98.6713 94.9471C98.9261 94.2967 99.561 93.0634 100.082 92.2065C101.027 90.6515 101.288 89.403 100.738 89.0631C100.578 88.9644 100.338 88.9931 100.204 89.1273ZM95.6229 92.9198C95.1583 93.0684 92.5048 93.2053 89.7267 93.2239C86.7069 93.2441 84.8043 93.3803 84.9962 93.5628C85.571 94.1095 90.8927 95.6229 92.2396 95.6229C94.4287 95.6229 96.9744 94.2288 96.9744 93.0299C96.9744 92.5352 96.8541 92.5254 95.6229 92.9198ZM38.8572 96.5298C37.5043 99.0947 34.7576 101.765 30.3948 104.756C26.0316 107.748 24.1732 109.579 22.9355 112.107C22.2756 113.454 22.1563 114.222 22.1641 117.079C22.1698 119.203 22.3452 120.834 22.6361 121.472C23.0828 122.449 23.1082 122.38 23.3474 119.533C23.6576 115.838 25.1007 112.461 27.1939 110.532C27.9694 109.817 30.1944 108.465 32.1386 107.527C36.3318 105.505 38.6704 103.526 40.1503 100.75C41.5205 98.179 41.537 97.3972 40.178 99.4492C38.8586 101.441 36.4741 103.555 34.2991 104.659L32.613 105.515L35.3128 102.661C36.8887 100.996 38.4078 98.9981 38.9623 97.8631C40.1264 95.4803 40.0334 94.3 38.8572 96.5298ZM48.898 101.631C48.4702 108.905 45.0548 114.27 39.0296 117.131C36.8748 118.155 36.0014 118.374 33.5236 118.515C31.3081 118.64 30.265 118.55 29.3118 118.151C27.5991 117.434 27.7052 117.943 29.4808 118.96C30.7631 119.694 31.3145 119.782 34.6336 119.782C38.1473 119.782 38.4741 119.722 40.6136 118.675C44.9558 116.551 47.9462 112.91 49.1524 108.28C49.7103 106.137 49.8813 98.8345 49.3805 98.525C49.2214 98.4267 49.0041 99.8242 48.898 101.631ZM21.6819 104.892C19.8198 106.912 19.2501 108.405 19.3038 111.123L19.3481 113.362L19.5887 111.501C19.9293 108.864 20.5115 107.294 21.7552 105.66C23.8302 102.935 23.7978 102.597 21.6819 104.892ZM127.047 103.645C127.047 103.783 127.569 104.961 128.207 106.263C128.845 107.566 129.605 109.566 129.896 110.708C130.561 113.315 130.572 117.857 129.919 120.289C129.32 122.519 129.335 122.316 129.768 122.316C129.963 122.316 130.609 121.29 131.204 120.035C132.215 117.9 132.284 117.518 132.284 114.038C132.284 110.631 132.205 110.165 131.331 108.442C129.942 105.701 127.047 102.46 127.047 103.645ZM114.055 104.013C114.231 104.168 114.984 104.468 115.727 104.679C117.501 105.185 119.455 106.832 120.356 108.58C121.33 110.47 121.341 113.531 120.381 115.389C118.441 119.142 113.663 121.962 109.223 121.974C108.433 121.977 107.787 122.117 107.787 122.287C107.787 122.83 110.357 123.051 112.362 122.68C116.652 121.887 120.201 119.378 121.887 115.944C124.106 111.426 122.265 106.098 117.85 104.256C116.548 103.713 113.488 103.517 114.055 104.013ZM17.5701 124.89C17.5701 125.244 19.8272 128.181 20.8362 129.138C22.2371 130.468 26.1765 132.201 28.1768 132.367L29.9031 132.51L27.2 130.852C25.7133 129.941 23.1102 128.179 21.415 126.938C18.5987 124.876 17.5701 124.328 17.5701 124.89Z" fill="black"/>
</g>
</g>
<defs>
<clipPath id="clip0_0_1">
<rect width="1440" height="4154" fill="white" transform="translate(-634 -723)"/>
</clipPath>
</defs>
</svg>
